# xmcd CD database file
#
# Track frame offsets:
#	150
#	20868
#	37670
#	62925
#	75180
#	105722
#	119459
#	132085
#	148269
#	171244
#	189362
#	218880
#	246899
#	272628
#
# Disc length: 4185 seconds
#
# Revision: 0
# Processed by: cddbd v1.5.2PL0 Copyright (c) Steve Scherf et al.
# Submitted via: CDex 1.70beta2
#
DISCID=c610570e
DTITLE=Diverse - Trombone - Greatest Works - CD 2
DYEAR=2008
DGENRE=Jazz
TTITLE0=Sliphorn Outing
TTITLE1=Undecided
TTITLE2=Medley
TTITLE3=Bill, Not Phil
TTITLE4=That Old Black Magic
TTITLE5=Yesterdays
TTITLE6=Audobahn (Audobon)
TTITLE7=A Night On Bop Mountain
TTITLE8=It's All Right With Me
TTITLE9=He Ain't Got Rythm
TTITLE10=Lullaby Of Birdland
TTITLE11=How Can I Lose?
TTITLE12=Oscalypso
TTITLE13=Moment's Notice
EXTD=YEAR: 2008
EXTT0=
EXTT1=
EXTT2=
EXTT3=
EXTT4=
EXTT5=
EXTT6=
EXTT7=
EXTT8=
EXTT9=
EXTT10=
EXTT11=
EXTT12=
EXTT13=
PLAYORDER=
